<?xml version="1.0" encoding="utf-8"?>
<!-- Generator: Adobe Illustrator 16.0.0, SVG Export Plug-In . SVG Version: 6.00 Build 0)  -->
<!DOCTYPE svg PUBLIC "-//W3C//DTD SVG 1.1//EN" "http://www.w3.org/Graphics/SVG/1.1/DTD/svg11.dtd">
<svg version="1.1" id="Layer_1" xmlns="http://www.w3.org/2000/svg" xmlns:xlink="http://www.w3.org/1999/xlink" x="0px" y="0px"
	 width="3000px" height="3000px" viewBox="0 0 3000 3000" enable-background="new 0 0 3000 3000" xml:space="preserve">
<g>
	<path fill="#5F6368" d="M1428.606,1488.006v307.012h-97.397v-758.183h258.313c62.277-1.302,122.496,22.329,167.269,65.637
		c45.3,40.747,70.775,99.086,69.871,160.009c1.298,61.263-24.224,120.038-69.871,160.917
		c-45.17,43.072-100.926,64.587-167.269,64.548h-160.916V1488.006z M1428.606,1130.179v264.665h163.336
		c36.207,1.073,71.191-13.158,96.368-39.2c51.169-49.748,52.319-131.555,2.573-182.723c-0.846-0.87-1.703-1.727-2.573-2.573
		c-24.871-26.603-59.964-41.252-96.368-40.229h-163.336V1130.179z"/>
	<path fill="#5F6368" d="M2051.099,1259.335c71.988,0,128.813,19.237,170.474,57.712c41.661,38.475,62.471,91.227,62.432,158.255
		v319.716h-93.162v-71.989h-4.235c-40.329,59.284-93.969,88.927-160.916,88.927c-57.148,0-104.959-16.938-143.434-50.815
		c-37.394-31.489-58.596-78.161-57.712-127.039c0-53.679,20.286-96.368,60.858-128.067c40.57-31.701,94.734-47.59,162.488-47.67
		c57.834,0,105.463,10.586,142.889,31.76v-22.262c0.224-33.32-14.548-64.975-40.229-86.206
		c-25.756-23.237-59.322-35.916-94.01-35.51c-54.404,0-97.456,22.948-129.155,68.843l-85.782-54.022
		C1888.79,1293.212,1958.622,1259.335,2051.099,1259.335z M1925.087,1636.219c-0.132,25.149,11.902,48.813,32.305,63.52
		c21.541,16.944,48.277,25.92,75.68,25.408c41.1-0.069,80.496-16.429,109.556-45.492c32.265-30.368,48.396-66,48.396-106.896
		c-30.367-24.197-72.715-36.296-127.038-36.296c-39.564,0-72.555,9.538-98.97,28.614
		C1938.336,1584.436,1925.087,1607.968,1925.087,1636.219L1925.087,1636.219z"/>
	<path fill="#5F6368" d="M2818.778,1276.274l-325.221,747.414h-100.542l120.687-261.52l-213.85-485.895h105.866l154.564,372.648
		h2.118l150.329-372.648H2818.778z"/>
	<path fill="#4285F4" d="M1035.026,1421.825c0.037-29.682-2.473-59.313-7.502-88.565H616.766v167.753h235.264
		c-9.729,54.14-41.152,101.955-86.991,132.363v108.89h140.408C987.659,1666.466,1035.026,1554.369,1035.026,1421.825z"/>
	<path fill="#34A853" d="M616.766,1847.467c117.541,0,216.511-38.596,288.681-105.14l-140.408-108.892
		c-39.08,26.497-89.411,41.62-148.272,41.62c-113.61,0-210.039-76.586-244.521-179.79H227.602v112.218
		C301.536,1754.604,452.112,1847.46,616.766,1847.467z"/>
	<path fill="#FBBC04" d="M372.245,1495.266c-18.229-54.081-18.229-112.646,0-166.725v-112.218H227.602
		c-61.84,123.055-61.84,268.106,0,391.161L372.245,1495.266z"/>
	<path fill="#EA4335" d="M616.766,1148.75c62.115-1.015,122.135,22.455,167.086,65.335l0,0l124.317-124.317
		c-78.83-74.041-183.262-114.69-291.403-113.428c-164.653,0.008-315.229,92.862-389.164,239.983l144.644,112.218
		C406.727,1225.337,503.155,1148.75,616.766,1148.75z"/>
</g>
</svg>
